<svg xmlns="http://www.w3.org/2000/svg" viewBox="0 0 300 300">
    <g fill="white" transform="matrix(4.575048549626272,0,0,4.575048549626272,16.797466069800468,164.82836937695447)">
        <path
            d="M2.25 3.72L6.34 3.72L6.34 5.56L2.55 5.56L2.55 7.73L6.34 7.73L6.34 7.73Q6.33 8.05 6.24 8.37L6.24 8.37L6.24 8.37Q6.16 8.69 5.98 8.95L5.98 8.95L5.98 8.95Q5.80 9.20 5.51 9.36L5.51 9.36L5.51 9.36Q5.22 9.52 4.79 9.52L4.79 9.52L2.55 9.52L2.55 13.52L0.70 13.52L0.70 5.38L0.70 5.38Q0.70 4.62 1.04 4.17L1.04 4.17L1.04 4.17Q1.39 3.72 2.25 3.72L2.25 3.72ZM7.74 13.52L7.74 6.24L9.31 6.24L9.31 7.17L9.31 7.17Q9.55 6.68 9.92 6.39L9.92 6.39L9.92 6.39Q10.29 6.10 10.74 6.08L10.74 6.08L10.74 6.08Q11.33 6.03 11.69 6.29L11.69 6.29L11.69 6.29Q12.05 6.55 12.20 6.92L12.20 6.92L12.20 6.92Q12.35 7.29 12.28 7.68L12.28 7.68L12.28 7.68Q12.21 8.06 11.90 8.29L11.90 8.29L11.90 8.29Q11.77 7.94 11.42 7.83L11.42 7.83L11.42 7.83Q11.06 7.73 10.67 7.86L10.67 7.86L10.67 7.86Q10.28 7.99 9.96 8.36L9.96 8.36L9.96 8.36Q9.65 8.72 9.59 9.31L9.59 9.31L9.59 9.31Q9.56 9.65 9.56 9.98L9.56 9.98L9.56 9.98Q9.56 10.30 9.56 10.58L9.56 10.58L9.56 13.52L7.74 13.52ZM18.65 10.72L18.65 10.72L18.65 10.72Q17.89 10.92 17.27 10.86L17.27 10.86L17.27 10.86Q16.65 10.81 16.25 10.56L16.25 10.56L16.25 10.56Q15.85 10.32 15.71 9.91L15.71 9.91L15.71 9.91Q15.58 9.49 15.79 8.97L15.79 8.97L15.79 8.97Q16.23 9.34 16.80 9.37L16.80 9.37L16.80 9.37Q17.37 9.41 17.91 9.35L17.91 9.35L17.91 9.35Q18.35 9.31 18.59 9.16L18.59 9.16L18.59 9.16Q18.82 9.00 18.87 8.80L18.87 8.80L18.87 8.80Q18.93 8.60 18.83 8.37L18.83 8.37L18.83 8.37Q18.73 8.15 18.52 7.97L18.52 7.97L18.52 7.97Q18.30 7.78 17.98 7.67L17.98 7.67L17.98 7.67Q17.67 7.56 17.29 7.57L17.29 7.57L17.29 7.57Q16.88 7.60 16.52 7.77L16.52 7.77L16.52 7.77Q16.16 7.94 15.88 8.23L15.88 8.23L15.88 8.23Q15.60 8.53 15.43 8.92L15.43 8.92L15.43 8.92Q15.26 9.31 15.25 9.79L15.25 9.79L15.25 9.79Q15.23 10.18 15.34 10.56L15.34 10.56L15.34 10.56Q15.44 10.93 15.65 11.25L15.65 11.25L15.65 11.25Q15.86 11.56 16.16 11.78L16.16 11.78L16.16 11.78Q16.45 12.00 16.83 12.05L16.83 12.05L16.83 12.05Q17.36 12.15 17.92 11.98L17.92 11.98L17.92 11.98Q18.48 11.82 18.91 11.37L18.91 11.37L20.38 12.08L20.38 12.08Q19.81 12.94 19.03 13.31L19.03 13.31L19.03 13.31Q18.24 13.68 17.23 13.68L17.23 13.68L17.23 13.68Q16.30 13.68 15.59 13.35L15.59 13.35L15.59 13.35Q14.88 13.02 14.41 12.47L14.41 12.47L14.41 12.47Q13.94 11.93 13.71 11.24L13.71 11.24L13.71 11.24Q13.48 10.54 13.50 9.82L13.50 9.82L13.50 9.82Q13.51 9.10 13.78 8.41L13.78 8.41L13.78 8.41Q14.04 7.71 14.55 7.18L14.55 7.18L14.55 7.18Q15.11 6.58 15.86 6.33L15.86 6.33L15.86 6.33Q16.60 6.08 17.39 6.08L17.39 6.08L17.39 6.08Q18.26 6.08 18.89 6.37L18.89 6.37L18.89 6.37Q19.52 6.66 19.91 7.12L19.91 7.12L19.91 7.12Q20.30 7.57 20.43 8.13L20.43 8.13L20.43 8.13Q20.55 8.68 20.41 9.20L20.41 9.20L20.41 9.20Q20.26 9.72 19.82 10.13L19.82 10.13L19.82 10.13Q19.39 10.54 18.65 10.72ZM26.63 10.72L26.63 10.72L26.63 10.72Q25.87 10.92 25.25 10.86L25.25 10.86L25.25 10.86Q24.63 10.81 24.23 10.56L24.23 10.56L24.23 10.56Q23.83 10.32 23.70 9.91L23.70 9.91L23.70 9.91Q23.56 9.49 23.77 8.97L23.77 8.97L23.77 8.97Q24.21 9.34 24.78 9.37L24.78 9.37L24.78 9.37Q25.35 9.41 25.89 9.35L25.89 9.35L25.89 9.35Q26.33 9.31 26.57 9.16L26.57 9.16L26.57 9.16Q26.80 9.00 26.85 8.80L26.85 8.80L26.85 8.80Q26.91 8.60 26.81 8.37L26.81 8.37L26.81 8.37Q26.71 8.15 26.50 7.97L26.50 7.97L26.50 7.97Q26.28 7.78 25.96 7.67L25.96 7.67L25.96 7.67Q25.65 7.56 25.27 7.57L25.27 7.57L25.27 7.57Q24.86 7.60 24.50 7.77L24.50 7.77L24.50 7.77Q24.14 7.94 23.86 8.23L23.86 8.23L23.86 8.23Q23.58 8.53 23.41 8.92L23.41 8.92L23.41 8.92Q23.24 9.31 23.23 9.79L23.23 9.79L23.23 9.79Q23.21 10.18 23.32 10.56L23.32 10.56L23.32 10.56Q23.42 10.93 23.63 11.25L23.63 11.25L23.63 11.25Q23.84 11.56 24.14 11.78L24.14 11.78L24.14 11.78Q24.43 12.00 24.81 12.05L24.81 12.05L24.81 12.05Q25.34 12.15 25.90 11.98L25.90 11.98L25.90 11.98Q26.46 11.82 26.89 11.37L26.89 11.37L28.36 12.08L28.36 12.08Q27.79 12.94 27.01 13.31L27.01 13.31L27.01 13.31Q26.22 13.68 25.21 13.68L25.21 13.68L25.21 13.68Q24.28 13.68 23.57 13.35L23.57 13.35L23.57 13.35Q22.86 13.02 22.39 12.47L22.39 12.47L22.39 12.47Q21.92 11.93 21.69 11.24L21.69 11.24L21.69 11.24Q21.46 10.54 21.48 9.82L21.48 9.82L21.48 9.82Q21.49 9.10 21.76 8.41L21.76 8.41L21.76 8.41Q22.02 7.71 22.53 7.18L22.53 7.18L22.53 7.18Q23.09 6.58 23.84 6.33L23.84 6.33L23.84 6.33Q24.58 6.08 25.37 6.08L25.37 6.08L25.37 6.08Q26.24 6.08 26.87 6.37L26.87 6.37L26.87 6.37Q27.50 6.66 27.89 7.12L27.89 7.12L27.89 7.12Q28.28 7.57 28.41 8.13L28.41 8.13L28.41 8.13Q28.53 8.68 28.39 9.20L28.39 9.20L28.39 9.20Q28.24 9.72 27.80 10.13L27.80 10.13L27.80 10.13Q27.37 10.54 26.63 10.72ZM34.92 13.51L34.92 12.74L34.92 12.74Q34.40 13.24 33.79 13.48L33.79 13.48L33.79 13.48Q33.18 13.71 32.56 13.69L32.56 13.69L32.56 13.69Q31.95 13.66 31.37 13.41L31.37 13.41L31.37 13.41Q30.80 13.15 30.36 12.66L30.36 12.66L30.36 12.66Q29.92 12.18 29.65 11.51L29.65 11.51L29.65 11.51Q29.39 10.84 29.39 9.98L29.39 9.98L29.39 9.98Q29.39 9.16 29.67 8.47L29.67 8.47L29.67 8.47Q29.96 7.78 30.44 7.29L30.44 7.29L30.44 7.29Q30.93 6.79 31.54 6.52L31.54 6.52L31.54 6.52Q32.16 6.26 32.83 6.29L32.83 6.29L32.83 6.29Q33.53 6.31 33.93 6.58L33.93 6.58L33.93 6.58Q34.33 6.85 34.50 7.20L34.50 7.20L34.50 7.20Q34.68 7.55 34.67 7.90L34.67 7.90L34.67 7.90Q34.66 8.26 34.54 8.48L34.54 8.48L34.54 8.48Q34.30 8.15 33.87 8.03L33.87 8.03L33.87 8.03Q33.45 7.91 33.07 7.91L33.07 7.91L33.07 7.91Q32.44 7.91 32.01 8.22L32.01 8.22L32.01 8.22Q31.58 8.53 31.37 8.99L31.37 8.99L31.37 8.99Q31.15 9.45 31.15 9.99L31.15 9.99L31.15 9.99Q31.15 10.53 31.36 10.99L31.36 10.99L31.36 10.99Q31.57 11.45 31.99 11.76L31.99 11.76L31.99 11.76Q32.41 12.07 33.05 12.07L33.05 12.07L33.05 12.07Q33.60 12.07 33.96 11.82L33.96 11.82L33.96 11.82Q34.31 11.58 34.52 11.19L34.52 11.19L34.52 11.19Q34.73 10.79 34.83 10.31L34.83 10.31L34.83 10.31Q34.92 9.83 34.92 9.35L34.92 9.35L34.92 3.74L34.92 3.74Q35.74 3.77 36.21 4.19L36.21 4.19L36.21 4.19Q36.68 4.61 36.68 5.17L36.68 5.17L36.68 13.51L34.92 13.51ZM41.59 6.10L41.59 6.10L41.59 6.10Q42.70 6.10 43.56 6.64L43.56 6.64L43.56 6.64Q44.42 7.17 44.91 7.99L44.91 7.99L44.91 7.99Q45.40 8.82 45.44 9.83L45.44 9.83L45.44 9.83Q45.47 10.84 44.93 11.80L44.93 11.80L44.93 11.80Q44.46 12.60 43.72 13.08L43.72 13.08L43.72 13.08Q42.98 13.55 42.14 13.67L42.14 13.67L42.14 13.67Q41.30 13.79 40.45 13.53L40.45 13.53L40.45 13.53Q39.61 13.27 38.93 12.60L38.93 12.60L38.93 12.60Q38.18 11.83 37.93 10.82L37.93 10.82L37.93 10.82Q37.67 9.81 37.97 8.81L37.97 8.81L37.97 8.81Q38.09 8.40 38.38 8.13L38.38 8.13L38.38 8.13Q38.67 7.87 39.03 7.74L39.03 7.74L39.03 7.74Q39.40 7.62 39.79 7.63L39.79 7.63L39.79 7.63Q40.18 7.64 40.52 7.79L40.52 7.79L40.52 7.79Q40.85 7.94 41.08 8.21L41.08 8.21L41.08 8.21Q41.31 8.48 41.36 8.88L41.36 8.88L41.36 8.88Q41.15 8.72 40.85 8.71L40.85 8.71L40.85 8.71Q40.56 8.71 40.29 8.84L40.29 8.84L40.29 8.84Q40.01 8.97 39.82 9.25L39.82 9.25L39.82 9.25Q39.63 9.52 39.63 9.93L39.63 9.93L39.63 9.93Q39.63 10.63 39.93 11.09L39.93 11.09L39.93 11.09Q40.22 11.55 40.66 11.78L40.66 11.78L40.66 11.78Q41.10 12.01 41.62 12.01L41.62 12.01L41.62 12.01Q42.13 12.01 42.57 11.77L42.57 11.77L42.57 11.77Q43.01 11.54 43.30 11.07L43.30 11.07L43.30 11.07Q43.60 10.60 43.60 9.90L43.60 9.90L43.60 9.90Q43.60 9.35 43.40 8.93L43.40 8.93L43.40 8.93Q43.20 8.51 42.88 8.24L42.88 8.24L42.88 8.24Q42.55 7.97 42.11 7.86L42.11 7.86L42.11 7.86Q41.68 7.76 41.19 7.85L41.19 7.85L41.19 7.85Q40.98 7.60 40.68 7.46L40.68 7.46L40.68 7.46Q40.38 7.31 40.03 7.26L40.03 7.26L40.03 7.26Q39.68 7.21 39.33 7.27L39.33 7.27L39.33 7.27Q38.98 7.34 38.67 7.52L38.67 7.52L38.67 7.52Q39.23 6.85 39.97 6.48L39.97 6.48L39.97 6.48Q40.71 6.10 41.59 6.10ZM48.38 6.29L48.38 7.11L48.38 7.11Q48.50 6.86 48.72 6.68L48.72 6.68L48.72 6.68Q48.94 6.50 49.22 6.38L49.22 6.38L49.22 6.38Q49.50 6.26 49.80 6.19L49.80 6.19L49.80 6.19Q50.09 6.12 50.34 6.10L50.34 6.10L50.34 6.10Q50.88 6.06 51.40 6.24L51.40 6.24L51.40 6.24Q51.93 6.41 52.35 6.85L52.35 6.85L52.35 6.85Q52.47 6.99 52.58 7.13L52.58 7.13L52.58 7.13Q52.68 7.28 52.75 7.46L52.75 7.46L52.75 7.46Q52.79 7.15 53.00 6.91L53.00 6.91L53.00 6.91Q53.21 6.66 53.52 6.49L53.52 6.49L53.52 6.49Q53.82 6.31 54.17 6.22L54.17 6.22L54.17 6.22Q54.52 6.12 54.85 6.10L54.85 6.10L54.85 6.10Q55.40 6.06 55.92 6.24L55.92 6.24L55.92 6.24Q56.45 6.41 56.90 6.85L56.90 6.85L56.90 6.85Q57.53 7.50 57.53 8.74L57.53 8.74L57.53 13.52L55.71 13.52L55.71 13.52Q55.71 13.29 55.71 12.88L55.71 12.88L55.71 12.88Q55.71 12.47 55.70 11.99L55.70 11.99L55.70 11.99Q55.69 11.51 55.69 10.99L55.69 10.99L55.69 10.99Q55.69 10.47 55.68 10.01L55.68 10.01L55.68 10.01Q55.66 9.55 55.64 9.18L55.64 9.18L55.64 9.18Q55.62 8.82 55.59 8.65L55.59 8.65L55.59 8.65Q55.44 7.74 54.57 7.70L54.57 7.70L54.57 7.70Q54.08 7.69 53.75 7.98L53.75 7.98L53.75 7.98Q53.42 8.27 53.44 8.69L53.44 8.69L53.44 8.69Q53.31 8.65 53.19 8.55L53.19 8.55L53.19 8.55Q53.06 8.44 52.96 8.30L52.96 8.30L52.96 8.30Q52.98 8.41 52.98 8.52L52.98 8.52L52.98 8.52Q52.98 8.62 52.98 8.74L52.98 8.74L52.98 13.52L51.18 13.52L51.18 13.52Q51.18 13.29 51.19 12.88L51.19 12.88L51.19 12.88Q51.20 12.47 51.20 11.99L51.20 11.99L51.20 11.99Q51.20 11.51 51.20 10.99L51.20 10.99L51.20 10.99Q51.20 10.47 51.18 10.01L51.18 10.01L51.18 10.01Q51.17 9.55 51.14 9.18L51.14 9.18L51.14 9.18Q51.11 8.82 51.07 8.65L51.07 8.65L51.07 8.65Q50.96 8.20 50.65 7.98L50.65 7.98L50.65 7.98Q50.34 7.76 49.98 7.76L49.98 7.76L49.98 7.76Q49.49 7.76 49.22 8.02L49.22 8.02L49.22 8.02Q48.96 8.27 48.96 8.69L48.96 8.69L48.96 8.69Q48.79 8.64 48.62 8.46L48.62 8.46L48.62 8.46Q48.45 8.29 48.38 8.09L48.38 8.09L48.38 13.52L46.56 13.52L46.56 6.29L48.38 6.29Z">
        </path>
    </g>
    <defs>
        <linearGradient gradientTransform="rotate(25)" id="bird-gradient" x1="0%" y1="0%" x2="100%" y2="0%">
            <stop offset="0%" stop-color="#D418EA" stop-opacity="1"></stop>
            <stop offset="100%" stop-color="#ECD062" stop-opacity="1"></stop>
        </linearGradient>
    </defs>
    <g stroke="none" fill="url(#bird-gradient)"
        transform="matrix(1.17417593906168,0,0,1.17417593906168,90.5501326723632,60.00767004706302)">
        <path
            d="M39.155 48.586s-19.267-1.801-9.147-13.734C40.122 22.92 39.2 21.557 39.2 21.557s5.079-16.006 6.459-9.322c1.37 6.685 10.837 22.737 10.837 22.737s-.024 1.435 1.471.721c1.488-.718 2.962-.836 6.745-4.845 3.788-4.019 9.154-.985 9.154-.985s4.957-1.711 5.519-1.553c.563.159-3.903 2.538-4.42 3.304-.52.761-3.245 7.729-3.106 9.665.132 1.933-3.091 6.937-4.01 7.208 0 0 8.862 4.627 10.527 8.658 0 0 8.979 5.264 10.146 9.465 1.173 4.195 18.996 15.741 7.799 20.47-11.189 4.733-28.113-4.365-29.362-5.319-1.239-.957-15.848-8.874-20.825-9.516-4.971-.646-7.331-5.709-4.055-11.687 0 0-5.225-.037-6.126.468-.904.504-14.253 13.422-15.281 14.12-1.034.694-13.442 12.968-18.24 4.185C-2.371 70.54 9.17 67.275 9.17 67.275s19.249-8.296 22.304-11.073c3.053-2.776 7.681-7.616 7.681-7.616z">
        </path>
    </g>
</svg>
