<?xml version="1.0" standalone="no"?>
<!DOCTYPE svg PUBLIC "-//W3C//DTD SVG 20010904//EN"
 "http://www.w3.org/TR/2001/REC-SVG-20010904/DTD/svg10.dtd">
<svg version="1.0" xmlns="http://www.w3.org/2000/svg"
 width="800.000000pt" height="800.000000pt" viewBox="0 0 800.000000 800.000000"
 preserveAspectRatio="xMidYMid meet">
<metadata>
Created by potrace 1.14, written by Peter Selinger 2001-2017
</metadata>
<g transform="translate(0.000000,800.000000) scale(0.100000,-0.100000)"
fill="#000000" stroke="none">
<path d="M3499 7099 c-52 -56 -130 -205 -205 -389 -47 -115 -114 -296 -118
-315 -1 -5 -5 -15 -8 -21 -4 -6 -9 -22 -12 -37 -2 -15 -7 -31 -11 -37 -3 -5
-8 -26 -10 -46 -7 -54 -64 -164 -157 -303 -46 -68 -185 -258 -198 -271 -3 -3
-32 -40 -64 -82 -32 -43 -63 -78 -68 -78 -5 0 -7 -4 -4 -9 4 -5 3 -11 -2 -13
-4 -1 -39 -41 -77 -88 -38 -47 -93 -112 -122 -146 -83 -96 -159 -203 -195
-274 -18 -36 -37 -68 -43 -72 -5 -4 -7 -8 -3 -8 4 0 0 -16 -8 -35 -8 -19 -14
-37 -14 -40 0 -3 0 -6 -1 -7 -12 -39 -15 -145 -5 -188 32 -149 149 -271 352
-366 67 -31 221 -87 274 -99 101 -23 207 -45 250 -51 61 -8 69 -10 74 -15 5
-4 -493 -503 -579 -579 -73 -65 -118 -100 -128 -100 -4 0 -27 -13 -50 -29 -23
-15 -62 -38 -87 -51 -25 -12 -48 -28 -52 -34 -4 -6 -8 -8 -8 -4 0 4 -26 -8
-57 -25 -88 -49 -389 -197 -402 -197 -6 0 -11 -4 -11 -10 0 -5 -4 -10 -9 -10
-10 0 -117 -49 -251 -113 -36 -17 -67 -32 -70 -32 -3 0 -36 -16 -75 -35 -38
-18 -72 -34 -75 -35 -3 -1 -23 -10 -45 -20 -22 -10 -42 -19 -45 -20 -15 -5
-64 -27 -135 -60 -44 -20 -106 -48 -137 -61 -32 -13 -81 -35 -110 -48 -29 -13
-64 -27 -78 -31 -76 -22 -256 -111 -330 -163 -82 -58 -189 -166 -215 -218 -11
-21 -24 -45 -29 -53 -6 -7 -11 -18 -12 -25 -1 -6 -9 -32 -17 -58 -14 -45 -16
-184 -3 -236 33 -137 95 -251 185 -340 40 -40 76 -71 79 -68 3 3 12 0 21 -7
56 -47 280 -57 381 -16 3 1 10 3 15 5 70 20 103 33 175 69 177 86 358 208 535
357 39 33 92 78 119 101 43 37 151 132 182 162 6 5 64 60 129 120 65 61 137
128 160 150 23 22 104 99 180 170 76 72 155 146 175 165 96 91 273 255 293
272 12 11 40 36 62 56 57 53 91 73 133 77 179 20 422 26 422 10 0 -6 -6 -19
-14 -30 -33 -49 -79 -190 -93 -285 -14 -101 0 -250 30 -305 6 -11 12 -22 13
-25 5 -20 22 -51 48 -85 88 -114 198 -174 371 -200 17 -2 43 -7 58 -10 37 -7
233 -72 272 -89 94 -42 124 -55 160 -67 22 -7 48 -20 59 -29 10 -8 20 -14 22
-12 5 3 35 -10 219 -96 151 -71 303 -148 322 -163 7 -6 13 -9 13 -6 0 3 45
-19 100 -49 55 -30 101 -54 103 -54 3 0 48 -25 102 -55 53 -30 101 -55 106
-55 5 0 9 -4 9 -10 0 -5 4 -10 9 -10 5 0 38 -19 72 -42 84 -55 441 -235 451
-227 2 1 14 -4 28 -11 14 -8 30 -15 35 -16 6 -1 30 -11 55 -22 50 -23 234 -90
265 -97 11 -2 40 -11 65 -20 45 -17 252 -72 300 -81 14 -3 32 -7 40 -9 8 -3
32 -7 54 -11 21 -3 47 -7 56 -9 10 -2 40 -7 67 -11 26 -3 57 -8 68 -10 85 -16
340 -22 460 -11 62 6 85 9 160 22 121 20 329 99 393 148 40 31 122 113 122
122 0 6 8 24 17 40 25 46 25 174 1 244 -43 123 -106 226 -232 381 -88 108 -86
106 -146 169 -249 262 -316 333 -360 381 -60 65 -150 193 -150 212 0 18 -71
157 -96 188 -41 51 -101 116 -148 159 -27 25 -58 55 -70 66 -12 11 -44 38 -71
60 -28 22 -54 43 -60 48 -43 35 -150 110 -255 179 -102 67 -129 89 -144 122
-11 22 -29 51 -40 65 -31 39 -187 192 -226 223 -125 97 -255 188 -269 188 -5
0 -11 4 -13 8 -1 5 -37 28 -78 52 -41 25 -77 47 -80 51 -3 3 -14 9 -26 13 -11
3 -34 16 -51 29 l-31 23 27 18 c15 11 38 35 52 55 13 20 27 38 30 41 16 12
114 178 144 245 42 91 62 162 69 245 5 75 11 104 33 180 9 30 18 60 19 66 3
16 53 165 64 189 5 11 23 58 40 105 47 126 85 202 113 227 14 12 59 43 99 69
152 98 184 120 212 146 l30 27 -29 -4 c-52 -8 -70 -12 -85 -18 -13 -5 -96 -28
-110 -30 -3 0 -56 -18 -118 -38 l-112 -38 -58 26 c-31 14 -68 27 -82 29 -14 3
-32 7 -40 11 -28 12 -45 14 -138 17 -51 2 -112 -1 -135 -6 -23 -5 -50 -11 -60
-13 -56 -12 -151 -78 -257 -181 -199 -193 -248 -230 -385 -297 -88 -43 -153
-67 -180 -67 -24 0 -55 33 -55 58 0 11 -133 255 -157 288 -4 5 -18 30 -31 55
-66 126 -87 164 -93 169 -4 3 -15 24 -24 48 -10 23 -21 42 -26 42 -5 0 -9 7
-9 16 0 9 -8 28 -18 42 -40 58 -288 568 -367 757 -59 139 -110 285 -134 380
-25 104 -32 122 -51 143 -32 34 -59 27 -111 -29z"/>
</g>
</svg>
